<mxfile host="app.diagrams.net" modified="2021-01-16T11:05:23.315Z" agent="5.0 (Windows NT 10.0; Win64; x64) AppleWebKit/537.36 (KHTML, like Gecko) Chrome/87.0.4280.141 Safari/537.36" etag="nLZKYNFIqixGXu1pv_As" version="14.2.2" type="github">
  <diagram name="Page-1" id="c4acf3e9-155e-7222-9cf6-157b1a14988f">
    <mxGraphModel dx="1080" dy="526" grid="1" gridSize="10" guides="1" tooltips="1" connect="1" arrows="1" fold="1" page="1" pageScale="1" pageWidth="850" pageHeight="1100" background="#ffffff" math="0" shadow="0">
      <root>
        <mxCell id="0" />
        <mxCell id="1" parent="0" />
        <mxCell id="17acba5748e5396b-20" value="سناریو" style="swimlane;html=1;fontStyle=1;childLayout=stackLayout;horizontal=1;startSize=26;fillColor=none;horizontalStack=0;resizeParent=1;resizeLast=0;collapsible=1;marginBottom=0;swimlaneFillColor=#ffffff;rounded=0;shadow=0;comic=0;labelBackgroundColor=none;strokeWidth=1;fontFamily=Tahoma;fontSize=14;align=center;" parent="1" vertex="1">
          <mxGeometry x="270" y="42" width="240" height="148" as="geometry">
            <mxRectangle x="350" y="42" width="60" height="26" as="alternateBounds" />
          </mxGeometry>
        </mxCell>
        <mxCell id="17acba5748e5396b-26" value="انتساب" style="text;html=1;strokeColor=none;fillColor=none;align=left;verticalAlign=top;spacingLeft=4;spacingRight=4;whiteSpace=wrap;overflow=hidden;rotatable=0;points=[[0,0.5],[1,0.5]];portConstraint=eastwest;textDirection=rtl;fontFamily=Tahoma;" parent="17acba5748e5396b-20" vertex="1">
          <mxGeometry y="26" width="240" height="26" as="geometry" />
        </mxCell>
        <mxCell id="pfBKebfTM0D42UcSuYtv-1" value="&lt;span style=&quot;font-size: 13px ; text-align: right ; background-color: rgb(255 , 255 , 255)&quot;&gt;ساختار تسهیم هزینه اصلی&lt;br&gt;&lt;br&gt;&lt;/span&gt;" style="text;html=1;strokeColor=none;fillColor=none;align=left;verticalAlign=top;spacingLeft=4;spacingRight=4;whiteSpace=wrap;overflow=hidden;rotatable=0;points=[[0,0.5],[1,0.5]];portConstraint=eastwest;textDirection=rtl;fontFamily=Tahoma;" parent="17acba5748e5396b-20" vertex="1">
          <mxGeometry y="52" width="240" height="26" as="geometry" />
        </mxCell>
        <mxCell id="pfBKebfTM0D42UcSuYtv-2" value="&lt;span style=&quot;font-size: 13px ; text-align: right ; background-color: rgb(255 , 255 , 255)&quot;&gt;ساختار تسهیم هزینه پشتیبانی&lt;br&gt;&lt;br&gt;&lt;/span&gt;" style="text;html=1;strokeColor=none;fillColor=none;align=left;verticalAlign=top;spacingLeft=4;spacingRight=4;whiteSpace=wrap;overflow=hidden;rotatable=0;points=[[0,0.5],[1,0.5]];portConstraint=eastwest;textDirection=rtl;fontFamily=Tahoma;" parent="17acba5748e5396b-20" vertex="1">
          <mxGeometry y="78" width="240" height="26" as="geometry" />
        </mxCell>
        <mxCell id="pfBKebfTM0D42UcSuYtv-3" value="&lt;span style=&quot;font-size: 13px ; text-align: right ; background-color: rgb(255 , 255 , 255)&quot;&gt;بازه زمانی&lt;br&gt;&lt;br&gt;&lt;/span&gt;" style="text;html=1;strokeColor=none;fillColor=none;align=left;verticalAlign=top;spacingLeft=4;spacingRight=4;whiteSpace=wrap;overflow=hidden;rotatable=0;points=[[0,0.5],[1,0.5]];portConstraint=eastwest;textDirection=rtl;fontFamily=Tahoma;" parent="17acba5748e5396b-20" vertex="1">
          <mxGeometry y="104" width="240" height="26" as="geometry" />
        </mxCell>
        <mxCell id="pfBKebfTM0D42UcSuYtv-4" value="ساختار انتساب" style="swimlane;html=1;fontStyle=1;childLayout=stackLayout;horizontal=1;startSize=26;fillColor=none;horizontalStack=0;resizeParent=1;resizeLast=0;collapsible=1;marginBottom=0;swimlaneFillColor=#ffffff;rounded=0;shadow=0;comic=0;labelBackgroundColor=none;strokeWidth=1;fontFamily=Tahoma;fontSize=14;align=center;" parent="1" vertex="1">
          <mxGeometry x="320" y="250" width="150" height="110" as="geometry">
            <mxRectangle x="350" y="42" width="60" height="26" as="alternateBounds" />
          </mxGeometry>
        </mxCell>
        <mxCell id="pfBKebfTM0D42UcSuYtv-5" value="نوع پارامتر&lt;br&gt;" style="text;html=1;strokeColor=none;fillColor=none;align=left;verticalAlign=top;spacingLeft=4;spacingRight=4;whiteSpace=wrap;overflow=hidden;rotatable=0;points=[[0,0.5],[1,0.5]];portConstraint=eastwest;textDirection=rtl;fontFamily=Tahoma;" parent="pfBKebfTM0D42UcSuYtv-4" vertex="1">
          <mxGeometry y="26" width="150" height="26" as="geometry" />
        </mxCell>
        <mxCell id="pfBKebfTM0D42UcSuYtv-6" value="&lt;span style=&quot;font-size: 13px ; text-align: right ; background-color: rgb(255 , 255 , 255)&quot;&gt;سطح&lt;br&gt;&lt;br&gt;&lt;/span&gt;" style="text;html=1;strokeColor=none;fillColor=none;align=left;verticalAlign=top;spacingLeft=4;spacingRight=4;whiteSpace=wrap;overflow=hidden;rotatable=0;points=[[0,0.5],[1,0.5]];portConstraint=eastwest;textDirection=rtl;fontFamily=Tahoma;" parent="pfBKebfTM0D42UcSuYtv-4" vertex="1">
          <mxGeometry y="52" width="150" height="26" as="geometry" />
        </mxCell>
        <mxCell id="pfBKebfTM0D42UcSuYtv-7" value="&lt;span style=&quot;font-size: 13px ; text-align: right ; background-color: rgb(255 , 255 , 255)&quot;&gt;سنجه زیر فعالیت&lt;br&gt;&lt;br&gt;&lt;/span&gt;" style="text;html=1;strokeColor=none;fillColor=none;align=left;verticalAlign=top;spacingLeft=4;spacingRight=4;whiteSpace=wrap;overflow=hidden;rotatable=0;points=[[0,0.5],[1,0.5]];portConstraint=eastwest;textDirection=rtl;fontFamily=Tahoma;" parent="pfBKebfTM0D42UcSuYtv-4" vertex="1">
          <mxGeometry y="78" width="150" height="26" as="geometry" />
        </mxCell>
        <mxCell id="kSQQfhX_V0IJAJh5QwgK-3" style="edgeStyle=orthogonalEdgeStyle;rounded=0;orthogonalLoop=1;jettySize=auto;html=1;entryX=0.433;entryY=0.006;entryDx=0;entryDy=0;entryPerimeter=0;" edge="1" parent="1" source="pfBKebfTM0D42UcSuYtv-10" target="pfBKebfTM0D42UcSuYtv-29">
          <mxGeometry relative="1" as="geometry" />
        </mxCell>
        <mxCell id="pfBKebfTM0D42UcSuYtv-10" value="انتسابات" style="swimlane;html=1;fontStyle=1;childLayout=stackLayout;horizontal=1;startSize=26;fillColor=none;horizontalStack=0;resizeParent=1;resizeLast=0;collapsible=1;marginBottom=0;swimlaneFillColor=#ffffff;rounded=0;shadow=0;comic=0;labelBackgroundColor=none;strokeWidth=1;fontFamily=Tahoma;fontSize=14;align=center;" parent="1" vertex="1">
          <mxGeometry x="60" y="200" width="130" height="140" as="geometry">
            <mxRectangle x="350" y="42" width="60" height="26" as="alternateBounds" />
          </mxGeometry>
        </mxCell>
        <mxCell id="pfBKebfTM0D42UcSuYtv-11" value="ساختار انتساب" style="text;html=1;strokeColor=none;fillColor=none;align=left;verticalAlign=top;spacingLeft=4;spacingRight=4;whiteSpace=wrap;overflow=hidden;rotatable=0;points=[[0,0.5],[1,0.5]];portConstraint=eastwest;textDirection=rtl;fontFamily=Tahoma;" parent="pfBKebfTM0D42UcSuYtv-10" vertex="1">
          <mxGeometry y="26" width="130" height="26" as="geometry" />
        </mxCell>
        <mxCell id="pfBKebfTM0D42UcSuYtv-12" value="&lt;span style=&quot;font-size: 13px ; text-align: right ; background-color: rgb(255 , 255 , 255)&quot;&gt;نوع پارامتر&lt;br&gt;&lt;br&gt;&lt;/span&gt;" style="text;html=1;strokeColor=none;fillColor=none;align=left;verticalAlign=top;spacingLeft=4;spacingRight=4;whiteSpace=wrap;overflow=hidden;rotatable=0;points=[[0,0.5],[1,0.5]];portConstraint=eastwest;textDirection=rtl;fontFamily=Tahoma;" parent="pfBKebfTM0D42UcSuYtv-10" vertex="1">
          <mxGeometry y="52" width="130" height="26" as="geometry" />
        </mxCell>
        <mxCell id="pfBKebfTM0D42UcSuYtv-13" value="&lt;span style=&quot;font-size: 13px ; text-align: right ; background-color: rgb(255 , 255 , 255)&quot;&gt;مقدار پارامتر&lt;br&gt;&lt;br&gt;&lt;/span&gt;" style="text;html=1;strokeColor=none;fillColor=none;align=left;verticalAlign=top;spacingLeft=4;spacingRight=4;whiteSpace=wrap;overflow=hidden;rotatable=0;points=[[0,0.5],[1,0.5]];portConstraint=eastwest;textDirection=rtl;fontFamily=Tahoma;" parent="pfBKebfTM0D42UcSuYtv-10" vertex="1">
          <mxGeometry y="78" width="130" height="26" as="geometry" />
        </mxCell>
        <mxCell id="pfBKebfTM0D42UcSuYtv-21" value="&lt;span style=&quot;font-size: 13px ; background-color: rgb(255 , 255 , 255)&quot;&gt;نوع&lt;/span&gt;&lt;span style=&quot;background-color: rgb(255 , 255 , 255) ; font-size: 13px&quot;&gt;(پشتیبانی، اصلی)&lt;/span&gt;&lt;span style=&quot;font-size: 13px ; background-color: rgb(255 , 255 , 255)&quot;&gt;&lt;br&gt;&lt;/span&gt;" style="text;html=1;strokeColor=none;fillColor=none;align=left;verticalAlign=top;spacingLeft=4;spacingRight=4;whiteSpace=wrap;overflow=hidden;rotatable=0;points=[[0,0.5],[1,0.5]];portConstraint=eastwest;textDirection=rtl;fontFamily=Tahoma;" parent="pfBKebfTM0D42UcSuYtv-10" vertex="1">
          <mxGeometry y="104" width="130" height="26" as="geometry" />
        </mxCell>
        <mxCell id="6ItNxqNI-p90sSFKc4RC-15" style="edgeStyle=orthogonalEdgeStyle;rounded=0;orthogonalLoop=1;jettySize=auto;html=1;exitX=0.5;exitY=1;exitDx=0;exitDy=0;entryX=1;entryY=0.5;entryDx=0;entryDy=0;" parent="1" source="pfBKebfTM0D42UcSuYtv-17" target="pfBKebfTM0D42UcSuYtv-11" edge="1">
          <mxGeometry relative="1" as="geometry">
            <Array as="points">
              <mxPoint x="695" y="239" />
            </Array>
          </mxGeometry>
        </mxCell>
        <mxCell id="pfBKebfTM0D42UcSuYtv-17" value="پارامتر" style="swimlane;html=1;fontStyle=1;childLayout=stackLayout;horizontal=1;startSize=26;fillColor=none;horizontalStack=0;resizeParent=1;resizeLast=0;collapsible=1;marginBottom=0;swimlaneFillColor=#ffffff;rounded=0;shadow=0;comic=0;labelBackgroundColor=none;strokeWidth=1;fontFamily=Tahoma;fontSize=14;align=center;" parent="1" vertex="1">
          <mxGeometry x="615" y="70" width="160" height="140" as="geometry">
            <mxRectangle x="350" y="42" width="60" height="26" as="alternateBounds" />
          </mxGeometry>
        </mxCell>
        <mxCell id="pfBKebfTM0D42UcSuYtv-18" value="عنوان" style="text;html=1;strokeColor=none;fillColor=none;align=left;verticalAlign=top;spacingLeft=4;spacingRight=4;whiteSpace=wrap;overflow=hidden;rotatable=0;points=[[0,0.5],[1,0.5]];portConstraint=eastwest;textDirection=rtl;fontFamily=Tahoma;" parent="pfBKebfTM0D42UcSuYtv-17" vertex="1">
          <mxGeometry y="26" width="160" height="26" as="geometry" />
        </mxCell>
        <mxCell id="pfBKebfTM0D42UcSuYtv-19" value="&lt;span style=&quot;font-size: 13px ; text-align: right ; background-color: rgb(255 , 255 , 255)&quot;&gt;کد&lt;br&gt;&lt;/span&gt;" style="text;html=1;strokeColor=none;fillColor=none;align=left;verticalAlign=top;spacingLeft=4;spacingRight=4;whiteSpace=wrap;overflow=hidden;rotatable=0;points=[[0,0.5],[1,0.5]];portConstraint=eastwest;textDirection=rtl;fontFamily=Tahoma;" parent="pfBKebfTM0D42UcSuYtv-17" vertex="1">
          <mxGeometry y="52" width="160" height="26" as="geometry" />
        </mxCell>
        <mxCell id="pfBKebfTM0D42UcSuYtv-20" value="&lt;span style=&quot;font-size: 13px ; text-align: right ; background-color: rgb(255 , 255 , 255)&quot;&gt;سطح&lt;br&gt;&lt;/span&gt;" style="text;html=1;strokeColor=none;fillColor=none;align=left;verticalAlign=top;spacingLeft=4;spacingRight=4;whiteSpace=wrap;overflow=hidden;rotatable=0;points=[[0,0.5],[1,0.5]];portConstraint=eastwest;textDirection=rtl;fontFamily=Tahoma;" parent="pfBKebfTM0D42UcSuYtv-17" vertex="1">
          <mxGeometry y="78" width="160" height="26" as="geometry" />
        </mxCell>
        <mxCell id="pfBKebfTM0D42UcSuYtv-50" style="edgeStyle=orthogonalEdgeStyle;rounded=0;orthogonalLoop=1;jettySize=auto;html=1;exitX=0.5;exitY=0;exitDx=0;exitDy=0;entryX=1;entryY=0.5;entryDx=0;entryDy=0;fontFamily=Tahoma;fontSize=14;" parent="1" source="pfBKebfTM0D42UcSuYtv-24" target="pfBKebfTM0D42UcSuYtv-31" edge="1">
          <mxGeometry relative="1" as="geometry" />
        </mxCell>
        <mxCell id="pfBKebfTM0D42UcSuYtv-24" value="محرک‌ها" style="swimlane;html=1;fontStyle=1;childLayout=stackLayout;horizontal=1;startSize=26;fillColor=none;horizontalStack=0;resizeParent=1;resizeLast=0;collapsible=1;marginBottom=0;swimlaneFillColor=#ffffff;rounded=0;shadow=0;comic=0;labelBackgroundColor=none;strokeWidth=1;fontFamily=Tahoma;fontSize=14;align=center;" parent="1" vertex="1">
          <mxGeometry x="300" y="410" width="100" height="90" as="geometry">
            <mxRectangle x="350" y="42" width="60" height="26" as="alternateBounds" />
          </mxGeometry>
        </mxCell>
        <mxCell id="pfBKebfTM0D42UcSuYtv-25" value="عنوان" style="text;html=1;strokeColor=none;fillColor=none;align=left;verticalAlign=top;spacingLeft=4;spacingRight=4;whiteSpace=wrap;overflow=hidden;rotatable=0;points=[[0,0.5],[1,0.5]];portConstraint=eastwest;textDirection=rtl;fontFamily=Tahoma;" parent="pfBKebfTM0D42UcSuYtv-24" vertex="1">
          <mxGeometry y="26" width="100" height="26" as="geometry" />
        </mxCell>
        <mxCell id="pfBKebfTM0D42UcSuYtv-26" value="&lt;span style=&quot;font-size: 13px ; text-align: right ; background-color: rgb(255 , 255 , 255)&quot;&gt;کد&lt;br&gt;&lt;/span&gt;" style="text;html=1;strokeColor=none;fillColor=none;align=left;verticalAlign=top;spacingLeft=4;spacingRight=4;whiteSpace=wrap;overflow=hidden;rotatable=0;points=[[0,0.5],[1,0.5]];portConstraint=eastwest;textDirection=rtl;fontFamily=Tahoma;" parent="pfBKebfTM0D42UcSuYtv-24" vertex="1">
          <mxGeometry y="52" width="100" height="26" as="geometry" />
        </mxCell>
        <mxCell id="pfBKebfTM0D42UcSuYtv-48" style="edgeStyle=orthogonalEdgeStyle;rounded=0;orthogonalLoop=1;jettySize=auto;html=1;exitX=0.5;exitY=1;exitDx=0;exitDy=0;entryX=0.5;entryY=0;entryDx=0;entryDy=0;fontFamily=Tahoma;fontSize=14;" parent="1" source="pfBKebfTM0D42UcSuYtv-29" target="pfBKebfTM0D42UcSuYtv-41" edge="1">
          <mxGeometry relative="1" as="geometry" />
        </mxCell>
        <mxCell id="pfBKebfTM0D42UcSuYtv-29" value="سهم محرک" style="swimlane;html=1;fontStyle=1;childLayout=stackLayout;horizontal=1;startSize=26;fillColor=none;horizontalStack=0;resizeParent=1;resizeLast=0;collapsible=1;marginBottom=0;swimlaneFillColor=#ffffff;rounded=0;shadow=0;comic=0;labelBackgroundColor=none;strokeWidth=1;fontFamily=Tahoma;fontSize=14;align=center;" parent="1" vertex="1">
          <mxGeometry x="60" y="430" width="150" height="170" as="geometry">
            <mxRectangle x="350" y="42" width="60" height="26" as="alternateBounds" />
          </mxGeometry>
        </mxCell>
        <mxCell id="pfBKebfTM0D42UcSuYtv-30" value="عنوان&lt;br&gt;" style="text;html=1;strokeColor=none;fillColor=none;align=left;verticalAlign=top;spacingLeft=4;spacingRight=4;whiteSpace=wrap;overflow=hidden;rotatable=0;points=[[0,0.5],[1,0.5]];portConstraint=eastwest;textDirection=rtl;fontFamily=Tahoma;" parent="pfBKebfTM0D42UcSuYtv-29" vertex="1">
          <mxGeometry y="26" width="150" height="26" as="geometry" />
        </mxCell>
        <mxCell id="pfBKebfTM0D42UcSuYtv-31" value="&lt;span style=&quot;font-size: 13px ; text-align: right ; background-color: rgb(255 , 255 , 255)&quot;&gt;محرک&lt;br&gt;&lt;/span&gt;" style="text;html=1;strokeColor=none;fillColor=none;align=left;verticalAlign=top;spacingLeft=4;spacingRight=4;whiteSpace=wrap;overflow=hidden;rotatable=0;points=[[0,0.5],[1,0.5]];portConstraint=eastwest;textDirection=rtl;fontFamily=Tahoma;" parent="pfBKebfTM0D42UcSuYtv-29" vertex="1">
          <mxGeometry y="52" width="150" height="26" as="geometry" />
        </mxCell>
        <mxCell id="pfBKebfTM0D42UcSuYtv-32" value="ساختار انتساب" style="text;html=1;strokeColor=none;fillColor=none;align=left;verticalAlign=top;spacingLeft=4;spacingRight=4;whiteSpace=wrap;overflow=hidden;rotatable=0;points=[[0,0.5],[1,0.5]];portConstraint=eastwest;textDirection=rtl;fontFamily=Tahoma;" parent="pfBKebfTM0D42UcSuYtv-29" vertex="1">
          <mxGeometry y="78" width="150" height="26" as="geometry" />
        </mxCell>
        <mxCell id="pfBKebfTM0D42UcSuYtv-39" value="تاریخ موثر&lt;br&gt;" style="text;html=1;strokeColor=none;fillColor=none;align=left;verticalAlign=top;spacingLeft=4;spacingRight=4;whiteSpace=wrap;overflow=hidden;rotatable=0;points=[[0,0.5],[1,0.5]];portConstraint=eastwest;textDirection=rtl;fontFamily=Tahoma;" parent="pfBKebfTM0D42UcSuYtv-29" vertex="1">
          <mxGeometry y="104" width="150" height="26" as="geometry" />
        </mxCell>
        <mxCell id="pfBKebfTM0D42UcSuYtv-40" value="سطح&lt;br&gt;" style="text;html=1;strokeColor=none;fillColor=none;align=left;verticalAlign=top;spacingLeft=4;spacingRight=4;whiteSpace=wrap;overflow=hidden;rotatable=0;points=[[0,0.5],[1,0.5]];portConstraint=eastwest;textDirection=rtl;fontFamily=Tahoma;" parent="pfBKebfTM0D42UcSuYtv-29" vertex="1">
          <mxGeometry y="130" width="150" height="26" as="geometry" />
        </mxCell>
        <mxCell id="pfBKebfTM0D42UcSuYtv-36" style="edgeStyle=orthogonalEdgeStyle;rounded=0;orthogonalLoop=1;jettySize=auto;html=1;exitX=0;exitY=0.5;exitDx=0;exitDy=0;entryX=0.5;entryY=0;entryDx=0;entryDy=0;fontFamily=Tahoma;fontSize=14;" parent="1" source="pfBKebfTM0D42UcSuYtv-2" target="pfBKebfTM0D42UcSuYtv-10" edge="1">
          <mxGeometry relative="1" as="geometry" />
        </mxCell>
        <mxCell id="kSQQfhX_V0IJAJh5QwgK-1" value="1" style="edgeLabel;html=1;align=center;verticalAlign=middle;resizable=0;points=[];" vertex="1" connectable="0" parent="pfBKebfTM0D42UcSuYtv-36">
          <mxGeometry x="-0.5377" y="-4" relative="1" as="geometry">
            <mxPoint x="29" y="-7" as="offset" />
          </mxGeometry>
        </mxCell>
        <mxCell id="pfBKebfTM0D42UcSuYtv-37" style="edgeStyle=orthogonalEdgeStyle;rounded=0;orthogonalLoop=1;jettySize=auto;html=1;exitX=0;exitY=0.5;exitDx=0;exitDy=0;entryX=1.015;entryY=0.115;entryDx=0;entryDy=0;entryPerimeter=0;fontFamily=Tahoma;fontSize=14;" parent="1" source="pfBKebfTM0D42UcSuYtv-6" target="pfBKebfTM0D42UcSuYtv-12" edge="1">
          <mxGeometry relative="1" as="geometry" />
        </mxCell>
        <mxCell id="pfBKebfTM0D42UcSuYtv-41" value="جزئیات سهم محرک" style="swimlane;html=1;fontStyle=1;childLayout=stackLayout;horizontal=1;startSize=26;fillColor=none;horizontalStack=0;resizeParent=1;resizeLast=0;collapsible=1;marginBottom=0;swimlaneFillColor=#ffffff;rounded=0;shadow=0;comic=0;labelBackgroundColor=none;strokeWidth=1;fontFamily=Tahoma;fontSize=14;align=center;" parent="1" vertex="1">
          <mxGeometry x="60" y="670" width="150" height="130" as="geometry">
            <mxRectangle x="350" y="42" width="60" height="26" as="alternateBounds" />
          </mxGeometry>
        </mxCell>
        <mxCell id="pfBKebfTM0D42UcSuYtv-42" value="سهم محرک" style="text;html=1;strokeColor=none;fillColor=none;align=left;verticalAlign=top;spacingLeft=4;spacingRight=4;whiteSpace=wrap;overflow=hidden;rotatable=0;points=[[0,0.5],[1,0.5]];portConstraint=eastwest;textDirection=rtl;fontFamily=Tahoma;" parent="pfBKebfTM0D42UcSuYtv-41" vertex="1">
          <mxGeometry y="26" width="150" height="26" as="geometry" />
        </mxCell>
        <mxCell id="pfBKebfTM0D42UcSuYtv-43" value="&lt;span style=&quot;font-size: 13px ; text-align: right ; background-color: rgb(255 , 255 , 255)&quot;&gt;سطح پارامتر انتساب&lt;br&gt;&lt;/span&gt;" style="text;html=1;strokeColor=none;fillColor=none;align=left;verticalAlign=top;spacingLeft=4;spacingRight=4;whiteSpace=wrap;overflow=hidden;rotatable=0;points=[[0,0.5],[1,0.5]];portConstraint=eastwest;textDirection=rtl;fontFamily=Tahoma;" parent="pfBKebfTM0D42UcSuYtv-41" vertex="1">
          <mxGeometry y="52" width="150" height="26" as="geometry" />
        </mxCell>
        <mxCell id="pfBKebfTM0D42UcSuYtv-44" value="مقدار پارامتر انتساب" style="text;html=1;strokeColor=none;fillColor=none;align=left;verticalAlign=top;spacingLeft=4;spacingRight=4;whiteSpace=wrap;overflow=hidden;rotatable=0;points=[[0,0.5],[1,0.5]];portConstraint=eastwest;textDirection=rtl;fontFamily=Tahoma;" parent="pfBKebfTM0D42UcSuYtv-41" vertex="1">
          <mxGeometry y="78" width="150" height="26" as="geometry" />
        </mxCell>
        <mxCell id="pfBKebfTM0D42UcSuYtv-45" value="تعداد" style="text;html=1;strokeColor=none;fillColor=none;align=left;verticalAlign=top;spacingLeft=4;spacingRight=4;whiteSpace=wrap;overflow=hidden;rotatable=0;points=[[0,0.5],[1,0.5]];portConstraint=eastwest;textDirection=rtl;fontFamily=Tahoma;" parent="pfBKebfTM0D42UcSuYtv-41" vertex="1">
          <mxGeometry y="104" width="150" height="26" as="geometry" />
        </mxCell>
        <mxCell id="pfBKebfTM0D42UcSuYtv-51" value="نوع هزینه" style="swimlane;html=1;fontStyle=1;childLayout=stackLayout;horizontal=1;startSize=26;fillColor=none;horizontalStack=0;resizeParent=1;resizeLast=0;collapsible=1;marginBottom=0;swimlaneFillColor=#ffffff;rounded=0;shadow=0;comic=0;labelBackgroundColor=none;strokeWidth=1;fontFamily=Tahoma;fontSize=14;align=center;" parent="1" vertex="1">
          <mxGeometry x="480" y="400" width="130" height="110" as="geometry">
            <mxRectangle x="350" y="42" width="60" height="26" as="alternateBounds" />
          </mxGeometry>
        </mxCell>
        <mxCell id="pfBKebfTM0D42UcSuYtv-52" value="عنوان" style="text;html=1;strokeColor=none;fillColor=none;align=left;verticalAlign=top;spacingLeft=4;spacingRight=4;whiteSpace=wrap;overflow=hidden;rotatable=0;points=[[0,0.5],[1,0.5]];portConstraint=eastwest;textDirection=rtl;fontFamily=Tahoma;" parent="pfBKebfTM0D42UcSuYtv-51" vertex="1">
          <mxGeometry y="26" width="130" height="26" as="geometry" />
        </mxCell>
        <mxCell id="pfBKebfTM0D42UcSuYtv-53" value="&lt;span style=&quot;font-size: 13px ; text-align: right ; background-color: rgb(255 , 255 , 255)&quot;&gt;کد&lt;br&gt;&lt;/span&gt;" style="text;html=1;strokeColor=none;fillColor=none;align=left;verticalAlign=top;spacingLeft=4;spacingRight=4;whiteSpace=wrap;overflow=hidden;rotatable=0;points=[[0,0.5],[1,0.5]];portConstraint=eastwest;textDirection=rtl;fontFamily=Tahoma;" parent="pfBKebfTM0D42UcSuYtv-51" vertex="1">
          <mxGeometry y="52" width="130" height="26" as="geometry" />
        </mxCell>
        <mxCell id="pfBKebfTM0D42UcSuYtv-54" value="&lt;span style=&quot;font-size: 13px ; text-align: right ; background-color: rgb(255 , 255 , 255)&quot;&gt;پرسنلی/غیرپرسنلی&lt;br&gt;&lt;br&gt;&lt;/span&gt;" style="text;html=1;strokeColor=none;fillColor=none;align=left;verticalAlign=top;spacingLeft=4;spacingRight=4;whiteSpace=wrap;overflow=hidden;rotatable=0;points=[[0,0.5],[1,0.5]];portConstraint=eastwest;textDirection=rtl;fontFamily=Tahoma;" parent="pfBKebfTM0D42UcSuYtv-51" vertex="1">
          <mxGeometry y="78" width="130" height="26" as="geometry" />
        </mxCell>
        <mxCell id="pfBKebfTM0D42UcSuYtv-66" style="edgeStyle=orthogonalEdgeStyle;rounded=0;orthogonalLoop=1;jettySize=auto;html=1;entryX=0.5;entryY=0;entryDx=0;entryDy=0;fontFamily=Tahoma;fontSize=14;" parent="1" source="pfBKebfTM0D42UcSuYtv-55" target="pfBKebfTM0D42UcSuYtv-61" edge="1">
          <mxGeometry relative="1" as="geometry">
            <Array as="points">
              <mxPoint x="715" y="520" />
              <mxPoint x="715" y="520" />
            </Array>
          </mxGeometry>
        </mxCell>
        <mxCell id="pfBKebfTM0D42UcSuYtv-55" value="هزینه" style="swimlane;html=1;fontStyle=1;childLayout=stackLayout;horizontal=1;startSize=26;fillColor=none;horizontalStack=0;resizeParent=1;resizeLast=0;collapsible=1;marginBottom=0;swimlaneFillColor=#ffffff;rounded=0;shadow=0;comic=0;labelBackgroundColor=none;strokeWidth=1;fontFamily=Tahoma;fontSize=14;align=center;" parent="1" vertex="1">
          <mxGeometry x="670" y="400" width="130" height="110" as="geometry">
            <mxRectangle x="350" y="42" width="60" height="26" as="alternateBounds" />
          </mxGeometry>
        </mxCell>
        <mxCell id="pfBKebfTM0D42UcSuYtv-56" value="نوع هزینه" style="text;html=1;strokeColor=none;fillColor=none;align=left;verticalAlign=top;spacingLeft=4;spacingRight=4;whiteSpace=wrap;overflow=hidden;rotatable=0;points=[[0,0.5],[1,0.5]];portConstraint=eastwest;textDirection=rtl;fontFamily=Tahoma;" parent="pfBKebfTM0D42UcSuYtv-55" vertex="1">
          <mxGeometry y="26" width="130" height="26" as="geometry" />
        </mxCell>
        <mxCell id="pfBKebfTM0D42UcSuYtv-64" value="مبلغ" style="text;html=1;strokeColor=none;fillColor=none;align=left;verticalAlign=top;spacingLeft=4;spacingRight=4;whiteSpace=wrap;overflow=hidden;rotatable=0;points=[[0,0.5],[1,0.5]];portConstraint=eastwest;textDirection=rtl;fontFamily=Tahoma;" parent="pfBKebfTM0D42UcSuYtv-55" vertex="1">
          <mxGeometry y="52" width="130" height="26" as="geometry" />
        </mxCell>
        <mxCell id="pfBKebfTM0D42UcSuYtv-65" value="تاریخ" style="text;html=1;strokeColor=none;fillColor=none;align=left;verticalAlign=top;spacingLeft=4;spacingRight=4;whiteSpace=wrap;overflow=hidden;rotatable=0;points=[[0,0.5],[1,0.5]];portConstraint=eastwest;textDirection=rtl;fontFamily=Tahoma;" parent="pfBKebfTM0D42UcSuYtv-55" vertex="1">
          <mxGeometry y="78" width="130" height="26" as="geometry" />
        </mxCell>
        <mxCell id="pfBKebfTM0D42UcSuYtv-61" value="جزئیات هزینه" style="swimlane;html=1;fontStyle=1;childLayout=stackLayout;horizontal=1;startSize=26;fillColor=none;horizontalStack=0;resizeParent=1;resizeLast=0;collapsible=1;marginBottom=0;swimlaneFillColor=#ffffff;rounded=0;shadow=0;comic=0;labelBackgroundColor=none;strokeWidth=1;fontFamily=Tahoma;fontSize=14;align=center;" parent="1" vertex="1">
          <mxGeometry x="610" y="560" width="210" height="168" as="geometry">
            <mxRectangle x="670" y="590" width="60" height="26" as="alternateBounds" />
          </mxGeometry>
        </mxCell>
        <mxCell id="pfBKebfTM0D42UcSuYtv-67" value="هزینه" style="text;html=1;strokeColor=none;fillColor=none;align=left;verticalAlign=top;spacingLeft=4;spacingRight=4;whiteSpace=wrap;overflow=hidden;rotatable=0;points=[[0,0.5],[1,0.5]];portConstraint=eastwest;textDirection=rtl;fontFamily=Tahoma;" parent="pfBKebfTM0D42UcSuYtv-61" vertex="1">
          <mxGeometry y="26" width="210" height="26" as="geometry" />
        </mxCell>
        <mxCell id="kSQQfhX_V0IJAJh5QwgK-5" value="سطح پارامتر" style="text;html=1;strokeColor=none;fillColor=none;align=left;verticalAlign=top;spacingLeft=4;spacingRight=4;whiteSpace=wrap;overflow=hidden;rotatable=0;points=[[0,0.5],[1,0.5]];portConstraint=eastwest;textDirection=rtl;fontFamily=Tahoma;" vertex="1" parent="pfBKebfTM0D42UcSuYtv-61">
          <mxGeometry y="52" width="210" height="26" as="geometry" />
        </mxCell>
        <mxCell id="pfBKebfTM0D42UcSuYtv-57" value="سطح پارامتر" style="text;html=1;strokeColor=none;fillColor=none;align=left;verticalAlign=top;spacingLeft=4;spacingRight=4;whiteSpace=wrap;overflow=hidden;rotatable=0;points=[[0,0.5],[1,0.5]];portConstraint=eastwest;textDirection=rtl;fontFamily=Tahoma;" parent="pfBKebfTM0D42UcSuYtv-61" vertex="1">
          <mxGeometry y="78" width="210" height="26" as="geometry" />
        </mxCell>
        <mxCell id="pfBKebfTM0D42UcSuYtv-59" value="مقدار پارامتر" style="text;html=1;strokeColor=none;fillColor=none;align=left;verticalAlign=top;spacingLeft=4;spacingRight=4;whiteSpace=wrap;overflow=hidden;rotatable=0;points=[[0,0.5],[1,0.5]];portConstraint=eastwest;textDirection=rtl;fontFamily=Tahoma;" parent="pfBKebfTM0D42UcSuYtv-61" vertex="1">
          <mxGeometry y="104" width="210" height="32" as="geometry" />
        </mxCell>
        <mxCell id="kSQQfhX_V0IJAJh5QwgK-4" value="مستقیم/غیرمستقیم (محاسبه شونده)" style="text;html=1;strokeColor=none;fillColor=none;align=left;verticalAlign=top;spacingLeft=4;spacingRight=4;whiteSpace=wrap;overflow=hidden;rotatable=0;points=[[0,0.5],[1,0.5]];portConstraint=eastwest;textDirection=rtl;fontFamily=Tahoma;" vertex="1" parent="pfBKebfTM0D42UcSuYtv-61">
          <mxGeometry y="136" width="210" height="32" as="geometry" />
        </mxCell>
        <mxCell id="pfBKebfTM0D42UcSuYtv-69" style="edgeStyle=orthogonalEdgeStyle;rounded=0;orthogonalLoop=1;jettySize=auto;html=1;entryX=0;entryY=0.5;entryDx=0;entryDy=0;fontFamily=Tahoma;fontSize=14;" parent="1" source="pfBKebfTM0D42UcSuYtv-52" target="pfBKebfTM0D42UcSuYtv-56" edge="1">
          <mxGeometry relative="1" as="geometry" />
        </mxCell>
        <mxCell id="pfBKebfTM0D42UcSuYtv-70" value="ساختار تسهیم هزینه اصلی" style="swimlane;html=1;fontStyle=1;childLayout=stackLayout;horizontal=1;startSize=26;fillColor=none;horizontalStack=0;resizeParent=1;resizeLast=0;collapsible=1;marginBottom=0;swimlaneFillColor=#ffffff;rounded=0;shadow=0;comic=0;labelBackgroundColor=none;strokeWidth=1;fontFamily=Tahoma;fontSize=14;align=center;" parent="1" vertex="1">
          <mxGeometry x="310" y="680" width="210" height="154" as="geometry">
            <mxRectangle x="670" y="590" width="60" height="26" as="alternateBounds" />
          </mxGeometry>
        </mxCell>
        <mxCell id="kSQQfhX_V0IJAJh5QwgK-8" value="سناریو" style="text;html=1;strokeColor=none;fillColor=none;align=left;verticalAlign=top;spacingLeft=4;spacingRight=4;whiteSpace=wrap;overflow=hidden;rotatable=0;points=[[0,0.5],[1,0.5]];portConstraint=eastwest;textDirection=rtl;fontFamily=Tahoma;" vertex="1" parent="pfBKebfTM0D42UcSuYtv-70">
          <mxGeometry y="26" width="210" height="26" as="geometry" />
        </mxCell>
        <mxCell id="6ItNxqNI-p90sSFKc4RC-1" value="نوع هزینه" style="text;html=1;strokeColor=none;fillColor=none;align=left;verticalAlign=top;spacingLeft=4;spacingRight=4;whiteSpace=wrap;overflow=hidden;rotatable=0;points=[[0,0.5],[1,0.5]];portConstraint=eastwest;textDirection=rtl;fontFamily=Tahoma;" parent="pfBKebfTM0D42UcSuYtv-70" vertex="1">
          <mxGeometry y="52" width="210" height="26" as="geometry" />
        </mxCell>
        <mxCell id="6ItNxqNI-p90sSFKc4RC-4" value="سطح هدف" style="text;html=1;strokeColor=none;fillColor=none;align=left;verticalAlign=top;spacingLeft=4;spacingRight=4;whiteSpace=wrap;overflow=hidden;rotatable=0;points=[[0,0.5],[1,0.5]];portConstraint=eastwest;textDirection=rtl;fontFamily=Tahoma;" parent="pfBKebfTM0D42UcSuYtv-70" vertex="1">
          <mxGeometry y="78" width="210" height="26" as="geometry" />
        </mxCell>
        <mxCell id="6ItNxqNI-p90sSFKc4RC-5" value="فرمول" style="text;html=1;strokeColor=none;fillColor=none;align=left;verticalAlign=top;spacingLeft=4;spacingRight=4;whiteSpace=wrap;overflow=hidden;rotatable=0;points=[[0,0.5],[1,0.5]];portConstraint=eastwest;textDirection=rtl;fontFamily=Tahoma;" parent="pfBKebfTM0D42UcSuYtv-70" vertex="1">
          <mxGeometry y="104" width="210" height="26" as="geometry" />
        </mxCell>
        <mxCell id="pfBKebfTM0D42UcSuYtv-74" value="ساختار تسهیم هزینه پشتیبانی" style="swimlane;html=1;fontStyle=1;childLayout=stackLayout;horizontal=1;startSize=26;fillColor=none;horizontalStack=0;resizeParent=1;resizeLast=0;collapsible=1;marginBottom=0;swimlaneFillColor=#ffffff;rounded=0;shadow=0;comic=0;labelBackgroundColor=none;strokeWidth=1;fontFamily=Tahoma;fontSize=14;align=center;" parent="1" vertex="1">
          <mxGeometry x="310" y="850" width="210" height="170" as="geometry">
            <mxRectangle x="670" y="590" width="60" height="26" as="alternateBounds" />
          </mxGeometry>
        </mxCell>
        <mxCell id="6ItNxqNI-p90sSFKc4RC-10" value="ترتیب&lt;br&gt;" style="text;html=1;strokeColor=none;fillColor=none;align=left;verticalAlign=top;spacingLeft=4;spacingRight=4;whiteSpace=wrap;overflow=hidden;rotatable=0;points=[[0,0.5],[1,0.5]];portConstraint=eastwest;textDirection=rtl;fontFamily=Tahoma;" parent="pfBKebfTM0D42UcSuYtv-74" vertex="1">
          <mxGeometry y="26" width="210" height="26" as="geometry" />
        </mxCell>
        <mxCell id="6ItNxqNI-p90sSFKc4RC-11" value="نوع پارامتر" style="text;html=1;strokeColor=none;fillColor=none;align=left;verticalAlign=top;spacingLeft=4;spacingRight=4;whiteSpace=wrap;overflow=hidden;rotatable=0;points=[[0,0.5],[1,0.5]];portConstraint=eastwest;textDirection=rtl;fontFamily=Tahoma;" parent="pfBKebfTM0D42UcSuYtv-74" vertex="1">
          <mxGeometry y="52" width="210" height="26" as="geometry" />
        </mxCell>
        <mxCell id="6ItNxqNI-p90sSFKc4RC-12" value="نوع مقدار پارامتر پشتیبانی، اصلی بودن" style="text;html=1;strokeColor=none;fillColor=none;align=left;verticalAlign=top;spacingLeft=4;spacingRight=4;whiteSpace=wrap;overflow=hidden;rotatable=0;points=[[0,0.5],[1,0.5]];portConstraint=eastwest;textDirection=rtl;fontFamily=Tahoma;" parent="pfBKebfTM0D42UcSuYtv-74" vertex="1">
          <mxGeometry y="78" width="210" height="26" as="geometry" />
        </mxCell>
        <mxCell id="6ItNxqNI-p90sSFKc4RC-13" value="مقدار پارامتر" style="text;html=1;strokeColor=none;fillColor=none;align=left;verticalAlign=top;spacingLeft=4;spacingRight=4;whiteSpace=wrap;overflow=hidden;rotatable=0;points=[[0,0.5],[1,0.5]];portConstraint=eastwest;textDirection=rtl;fontFamily=Tahoma;" parent="pfBKebfTM0D42UcSuYtv-74" vertex="1">
          <mxGeometry y="104" width="210" height="26" as="geometry" />
        </mxCell>
        <mxCell id="6ItNxqNI-p90sSFKc4RC-14" value="فرمول- براساس توضیحات زیل" style="text;html=1;strokeColor=none;fillColor=none;align=left;verticalAlign=top;spacingLeft=4;spacingRight=4;whiteSpace=wrap;overflow=hidden;rotatable=0;points=[[0,0.5],[1,0.5]];portConstraint=eastwest;textDirection=rtl;fontFamily=Tahoma;" parent="pfBKebfTM0D42UcSuYtv-74" vertex="1">
          <mxGeometry y="130" width="210" height="26" as="geometry" />
        </mxCell>
        <mxCell id="pfBKebfTM0D42UcSuYtv-78" value="فرمول‌ها" style="swimlane;html=1;fontStyle=1;childLayout=stackLayout;horizontal=1;startSize=26;fillColor=none;horizontalStack=0;resizeParent=1;resizeLast=0;collapsible=1;marginBottom=0;swimlaneFillColor=#ffffff;rounded=0;shadow=0;comic=0;labelBackgroundColor=none;strokeWidth=1;fontFamily=Tahoma;fontSize=14;align=center;" parent="1" vertex="1">
          <mxGeometry x="620" y="770" width="150" height="120" as="geometry">
            <mxRectangle x="670" y="590" width="60" height="26" as="alternateBounds" />
          </mxGeometry>
        </mxCell>
        <mxCell id="J5F0M9M6JcGDgODGYvMz-1" value="عنوان" style="text;html=1;strokeColor=none;fillColor=none;align=left;verticalAlign=top;spacingLeft=4;spacingRight=4;whiteSpace=wrap;overflow=hidden;rotatable=0;points=[[0,0.5],[1,0.5]];portConstraint=eastwest;textDirection=rtl;fontFamily=Tahoma;" parent="pfBKebfTM0D42UcSuYtv-78" vertex="1">
          <mxGeometry y="26" width="150" height="26" as="geometry" />
        </mxCell>
        <object label="فرمول (ویرایشگر فرمول)" توضیحات="در این فرمول می‌تواند پارامترهای مختلفی از جمله سهم محرک استفاده شود. &#xa;در یک فرمول ممکن است از فرمول‌های دیگر هم استفاده شود" id="J5F0M9M6JcGDgODGYvMz-2">
          <mxCell style="text;html=1;strokeColor=none;fillColor=none;align=left;verticalAlign=top;spacingLeft=4;spacingRight=4;whiteSpace=wrap;overflow=hidden;rotatable=0;points=[[0,0.5],[1,0.5]];portConstraint=eastwest;textDirection=rtl;fontFamily=Tahoma;" parent="pfBKebfTM0D42UcSuYtv-78" vertex="1">
            <mxGeometry y="52" width="150" height="26" as="geometry" />
          </mxCell>
        </object>
        <object label="تاریخ موثر" توضیحات="در این فرمول می‌تواند پارامترهای مختلفی از جمله سهم محرک استفاده شود. &#xa;در یک فرمول ممکن است از فرمول‌های دیگر هم استفاده شود" id="J5F0M9M6JcGDgODGYvMz-6">
          <mxCell style="text;html=1;strokeColor=none;fillColor=none;align=left;verticalAlign=top;spacingLeft=4;spacingRight=4;whiteSpace=wrap;overflow=hidden;rotatable=0;points=[[0,0.5],[1,0.5]];portConstraint=eastwest;textDirection=rtl;fontFamily=Tahoma;" parent="pfBKebfTM0D42UcSuYtv-78" vertex="1">
            <mxGeometry y="78" width="150" height="26" as="geometry" />
          </mxCell>
        </object>
        <mxCell id="6ItNxqNI-p90sSFKc4RC-6" style="edgeStyle=orthogonalEdgeStyle;rounded=0;orthogonalLoop=1;jettySize=auto;html=1;exitX=0;exitY=0.5;exitDx=0;exitDy=0;entryX=1;entryY=0.5;entryDx=0;entryDy=0;" parent="1" source="J5F0M9M6JcGDgODGYvMz-2" target="6ItNxqNI-p90sSFKc4RC-5" edge="1">
          <mxGeometry relative="1" as="geometry" />
        </mxCell>
        <mxCell id="6ItNxqNI-p90sSFKc4RC-7" value="&lt;font face=&quot;Calibri&quot; style=&quot;font-size: 15px&quot;&gt;&lt;br&gt;&lt;/font&gt;" style="text;html=1;align=right;verticalAlign=middle;resizable=0;points=[];autosize=1;textDirection=rtl;labelPosition=right;verticalLabelPosition=middle;" parent="1" vertex="1">
          <mxGeometry x="755" y="950" width="20" height="20" as="geometry" />
        </mxCell>
        <mxCell id="6ItNxqNI-p90sSFKc4RC-9" value="&lt;span style=&quot;color: rgb(0, 0, 0); font-size: 12px; font-style: normal; letter-spacing: normal; text-indent: 0px; text-transform: none; word-spacing: 0px; text-decoration: none; font-weight: bold;&quot;&gt;روش تسهیم انواع پشتیبانی:&#xa;&lt;/span&gt;&lt;span style=&quot;color: rgb(0, 0, 0); font-size: 12px; font-style: normal; font-weight: normal; letter-spacing: normal; text-indent: 0px; text-transform: none; word-spacing: 0px; text-decoration: none;&quot;&gt;با توجه به بررسی های انجام شده به نظر می‌رسد که نیازمند وجود فرمول ادیتور در سناریوهای پیچیده تر برای تسهیم هزینه‌های پشتیبانی خواهیم بود&#xa;ولی برای ساده سازی و رسیده به یک طرح کارای اولیه ما دو مدل تسهیم را در نظر خواهیم گرفت:&#xa;1- تسهیم بر اساس سهم ریالی (فیلتر پارامتر)&#xa;2- تسهیم بر اساس سهم محرک&#xa;&#xa;&#xa;&lt;/span&gt;&lt;span style=&quot;color: rgb(0, 0, 0); font-size: 12px; font-style: normal; letter-spacing: normal; text-indent: 0px; text-transform: none; word-spacing: 0px; text-decoration: none; font-weight: bold;&quot;&gt;روش تسهیم انواع اصلی (شیت ساختار تسهیم هزینه):&#xa;&lt;/span&gt;&lt;span style=&quot;color: rgb(0, 0, 0); font-size: 12px; font-style: normal; font-weight: normal; letter-spacing: normal; text-indent: 0px; text-transform: none; word-spacing: 0px; text-decoration: none;&quot;&gt;در این روش با توجه به هزینه دریافتی از اولین سطح خالی به بعد، بقیه سطوح احتمالی پر شده در نظر گرفته نمی‌شود و از آن سطح خالی به بعد بر اساس فرومل تسهیم انجام می‌شود.&lt;/span&gt;" style="text;whiteSpace=wrap;html=1;align=right;textDirection=rtl;fontFamily=Tahoma;fontSize=12;" parent="1" vertex="1">
          <mxGeometry x="280" y="1060" width="550" height="210" as="geometry" />
        </mxCell>
        <mxCell id="kSQQfhX_V0IJAJh5QwgK-2" value="n" style="text;html=1;align=center;verticalAlign=middle;resizable=0;points=[];autosize=1;" vertex="1" parent="1">
          <mxGeometry x="100" y="170" width="20" height="20" as="geometry" />
        </mxCell>
        <mxCell id="kSQQfhX_V0IJAJh5QwgK-7" style="edgeStyle=orthogonalEdgeStyle;rounded=0;orthogonalLoop=1;jettySize=auto;html=1;entryX=0.4;entryY=0;entryDx=0;entryDy=0;entryPerimeter=0;fontFamily=Tahoma;fontSize=12;" edge="1" parent="1" source="kSQQfhX_V0IJAJh5QwgK-6" target="pfBKebfTM0D42UcSuYtv-55">
          <mxGeometry relative="1" as="geometry" />
        </mxCell>
        <mxCell id="kSQQfhX_V0IJAJh5QwgK-6" value="کانورت از اکسل" style="text;html=1;align=center;verticalAlign=middle;resizable=0;points=[];autosize=1;fontSize=12;fontFamily=Tahoma;fontStyle=1" vertex="1" parent="1">
          <mxGeometry x="675" y="290" width="100" height="20" as="geometry" />
        </mxCell>
      </root>
    </mxGraphModel>
  </diagram>
</mxfile>
